<?xml version="1.0" standalone="no"?>
<!DOCTYPE svg PUBLIC "-//W3C//DTD SVG 20010904//EN"
 "http://www.w3.org/TR/2001/REC-SVG-20010904/DTD/svg10.dtd">
<svg version="1.0" xmlns="http://www.w3.org/2000/svg"
 width="2209.000000pt" height="2209.000000pt" viewBox="0 0 2209.000000 2209.000000"
 preserveAspectRatio="xMidYMid meet">
<metadata>
Created by potrace 1.11, written by Peter Selinger 2001-2013
</metadata>
<g transform="translate(0.000000,2209.000000) scale(0.100000,-0.100000)"
fill="#000000" stroke="none">
<path d="M10760 21704 c-668 -23 -1265 -92 -1870 -215 -1510 -308 -2961 -958
-4210 -1887 -600 -447 -1160 -962 -1652 -1524 -1312 -1495 -2171 -3300 -2502
-5258 -109 -641 -153 -1239 -143 -1935 6 -406 12 -535 43 -855 219 -2322 1189
-4495 2779 -6220 175 -190 543 -553 725 -715 1308 -1167 2874 -1995 4545
-2405 626 -153 1185 -240 1890 -292 227 -17 1123 -17 1350 0 425 32 733 67
1090 126 1453 241 2854 790 4090 1603 1367 900 2514 2104 3337 3503 817 1388
1303 2918 1438 4525 47 568 45 1251 -6 1830 -243 2773 -1560 5331 -3682 7154
-1774 1524 -3977 2412 -6327 2550 -185 11 -742 20 -895 15z m1486 -3429 c767
-62 1427 -243 2066 -566 1317 -667 2144 -1846 2313 -3297 20 -173 34 -521 24
-595 -30 -228 -277 -365 -491 -274 -85 37 -162 120 -193 207 -9 27 -18 121
-25 268 -5 125 -17 283 -25 352 -85 667 -332 1254 -749 1775 -106 133 -364
390 -501 499 -510 406 -1147 694 -1850 836 -632 128 -1409 140 -2145 34 -828
-119 -1518 -388 -2085 -814 -632 -474 -971 -1029 -1077 -1765 -17 -121 -17
-625 0 -765 61 -489 219 -884 492 -1231 72 -91 266 -297 272 -289 3 3 163 379
358 835 194 457 359 843 367 859 26 50 100 114 160 136 54 20 70 21 477 18
l421 -3 53 -29 c65 -36 107 -83 140 -154 21 -46 23 -64 20 -130 -5 -76 -13
-97 -457 -1137 -249 -583 -457 -1069 -461 -1081 -7 -19 7 -27 168 -98 565
-250 1167 -455 2134 -726 1726 -485 2669 -870 3349 -1366 787 -576 1180 -1243
1270 -2159 15 -158 15 -521 0 -665 -74 -688 -353 -1256 -858 -1751 -567 -555
-1364 -956 -2264 -1138 -487 -99 -949 -138 -1524 -128 -776 14 -1401 111
-2010 312 -277 91 -432 155 -690 285 -951 477 -1575 1151 -1879 2028 -124 358
-195 791 -199 1205 -2 170 -2 173 27 235 128 277 516 279 647 4 19 -41 24 -76
35 -291 8 -134 23 -303 33 -375 127 -869 566 -1520 1348 -2002 539 -333 1180
-546 1918 -639 327 -41 488 -50 910 -50 595 0 960 40 1435 156 883 216 1642
696 2031 1283 259 390 369 829 339 1354 -30 516 -171 912 -450 1262 -89 111
-288 306 -419 409 -453 359 -1052 649 -1995 967 -415 140 -663 215 -1351 409
-927 262 -1624 502 -2150 741 -95 43 -141 60 -146 52 -4 -6 -253 -590 -555
-1297 -301 -707 -561 -1306 -578 -1331 -40 -57 -111 -105 -176 -119 -33 -7
-231 -11 -559 -11 -563 0 -570 1 -653 65 -26 19 -55 49 -66 67 -12 18 -512
1257 -1113 2753 l-1092 2720 -1 80 c-1 68 3 88 26 131 15 28 48 70 73 92 81
71 89 72 531 72 368 0 397 -1 446 -20 77 -29 140 -96 182 -195 18 -44 403
-984 856 -2090 453 -1105 826 -2013 829 -2017 4 -5 179 394 388 885 l382 892
-62 54 c-126 111 -397 389 -476 489 -386 489 -597 1053 -652 1746 -15 189 -6
628 15 786 102 741 398 1340 921 1865 814 818 2015 1299 3450 1385 367 22 760
20 1071 -5z"/>
</g>
</svg>
